<?xml version="1.0" standalone="no"?>
<!DOCTYPE svg PUBLIC "-//W3C//DTD SVG 20010904//EN"
 "http://www.w3.org/TR/2001/REC-SVG-20010904/DTD/svg10.dtd">
<svg version="1.0" xmlns="http://www.w3.org/2000/svg"
 width="512.000000pt" height="512.000000pt" viewBox="0 0 512.000000 512.000000"
 preserveAspectRatio="xMidYMid meet">
<metadata>
Created by potrace 1.14, written by Peter Selinger 2001-2017
</metadata>
<g transform="translate(0.000000,512.000000) scale(0.100000,-0.100000)"
fill="#000000" stroke="none">
<path d="M0 2560 l0 -2560 2560 0 2560 0 0 2560 0 2560 -2560 0 -2560 0 0
-2560z m3140 770 c-8 -15 -6 -35 5 -77 9 -32 19 -68 22 -81 4 -18 8 -20 20
-10 8 6 4 -6 -8 -28 -39 -67 -187 -205 -272 -253 -170 -96 -298 -129 -527
-138 -257 -9 -389 17 -735 147 -273 103 -326 119 -410 128 -63 6 -66 7 -29 12
40 5 40 5 32 37 -4 17 -16 34 -26 36 -9 3 18 5 61 6 87 1 348 -34 591 -80 359
-67 686 -28 1003 121 93 44 189 109 242 164 40 41 46 44 31 16z m305 -114 c20
-103 19 -182 -4 -292 -66 -318 -317 -575 -652 -666 -119 -32 -334 -32 -463 0
-106 27 -235 85 -320 146 -62 45 -216 199 -216 217 0 6 21 -4 46 -22 174 -119
446 -178 691 -150 493 57 866 379 891 769 2 45 7 81 9 79 2 -2 10 -39 18 -81z
m-2840 -1551 c215 -110 184 -411 -48 -480 -36 -11 -99 -15 -219 -15 l-168 0 0
266 0 266 188 -3 c187 -4 189 -4 247 -34z m609 21 c101 -31 153 -105 144 -206
-6 -64 -40 -112 -103 -147 -45 -25 -62 -28 -177 -31 l-128 -4 0 -64 0 -64 -70
0 -70 0 0 265 0 265 178 0 c125 0 193 -4 226 -14z m507 -143 c30 -84 58 -155
61 -158 3 -4 34 66 69 155 l62 161 85 -3 85 -3 61 -157 c33 -87 63 -158 66
-158 3 0 22 48 44 108 21 59 47 131 58 160 l19 52 65 0 c35 0 64 -3 64 -7 0
-5 -39 -124 -87 -265 l-88 -258 -66 0 -66 0 -72 188 c-40 103 -76 191 -80 195
-4 4 -42 -79 -83 -185 l-76 -193 -68 0 -67 0 -88 263 -88 263 67 -3 67 -3 56
-152z m1215 121 c73 -37 118 -94 135 -170 24 -109 -19 -218 -109 -275 -65 -41
-113 -52 -217 -47 -79 3 -98 8 -145 34 -105 59 -155 165 -131 282 29 143 138
216 318 209 78 -2 100 -7 149 -33z m671 9 c59 -32 86 -75 91 -143 5 -63 -12
-106 -56 -147 l-27 -25 48 -88 c26 -48 47 -91 47 -94 0 -3 -31 -6 -68 -6 l-68
0 -40 78 -40 77 -107 3 -106 3 -3 -78 -3 -78 -67 -3 -68 -3 0 259 c0 142 3
262 8 266 4 4 99 6 212 4 189 -3 208 -5 247 -25z m311 -180 l2 -203 185 0 185
0 0 -60 0 -60 -252 2 -253 3 -3 250 c-1 137 0 256 3 263 3 9 23 12 67 10 l63
-3 3 -202z m816 192 c208 -54 274 -290 123 -436 -66 -65 -106 -74 -317 -74
l-185 0 -3 250 c-1 137 0 255 3 262 7 20 303 18 379 -2z"/>
<path d="M300 1435 l0 -145 103 0 c125 0 161 15 195 80 28 55 28 75 -1 130
-33 65 -69 80 -194 80 l-103 0 0 -145z"/>
<path d="M950 1505 l0 -85 105 0 c57 0 115 5 129 11 33 15 51 60 39 96 -15 46
-63 63 -175 63 l-98 0 0 -85z"/>
<path d="M2685 1566 c-17 -7 -43 -28 -58 -45 -22 -27 -27 -43 -27 -86 0 -91
64 -145 172 -145 168 0 234 167 105 264 -35 26 -147 33 -192 12z"/>
<path d="M3280 1510 l0 -70 104 0 c118 0 163 12 177 47 12 31 2 71 -21 83 -10
6 -73 10 -139 10 l-121 0 0 -70z"/>
<path d="M4490 1435 l0 -145 108 0 c88 0 113 3 139 20 91 55 87 201 -7 251
-27 15 -56 19 -137 19 l-103 0 0 -145z"/>
</g>
</svg>
